<?xml version="1.0" encoding="utf-8"?>
<!-- Generator: Adobe Illustrator 19.2.1, SVG Export Plug-In . SVG Version: 6.00 Build 0)  -->
<svg version="1.1" id="Layer_1" xmlns="http://www.w3.org/2000/svg" xmlns:xlink="http://www.w3.org/1999/xlink" x="0px" y="0px"
	 viewBox="0 0 400 400" style="enable-background:new 0 0 400 400;" xml:space="preserve">
<style type="text/css">
	.st0{fill:#FFFFFF;}
</style>
<g>
	<path class="st0" d="M46.3,353.6c9.4,0,17.6,0,25.9,0c14.9,0,29.8-0.2,44.7,0.1c8.8,0.2,14.4,6.1,14.4,14.2c0,8-5.8,13.7-14.5,14.2
		c-0.7,0-1.4,0.1-2.1,0.1c-28.4,0-56.9,0.1-85.3,0c-9.2,0-11.6-2.4-11.6-11.3c-0.1-28.9-0.1-57.8-0.1-86.7c0-9.7,5.8-15.7,14.5-15.6
		c8.6,0.1,14,6.2,14.1,16c0.1,20,0,39.9,0.1,59.9C46.3,347.1,46.3,349.9,46.3,353.6z"/>
	<path class="st0" d="M46.3,46.4c0,19.3,0,37.6,0,55.9c0,3.4,0,6.9,0,10.3c-0.1,12.6-4.7,18.6-14.2,18.7
		c-9.4,0.1-14.4-6.3-14.5-18.5c0-4.1,0-8.3,0-12.4c0-22.9,0-45.9-0.1-68.8c0-11.8,1.9-13.8,13.4-13.8c28.5,0,56.9-0.1,85.4,0.1
		c9.2,0,14.6,5.3,14.9,13.6c0.2,8.6-5.2,14.3-14.5,14.8c-2.7,0.2-5.5,0.1-8.3,0.1C88.2,46.4,67.8,46.4,46.3,46.4z"/>
	<path class="st0" d="M114,126c0,9.5,0,17.2,0,25c0,5.5-1.2,10.2-8,10.5c-5.3,0.2-7.9-3.3-8-10.4c0-14.9,0.1-29.8-0.1-44.7
		c-0.1-5.8,1.8-8.4,7.9-8.3c15.4,0.2,30.7,0.1,46.1,0.1c5.3,0,9.2,1.9,9.4,7.6c0.2,5.9-3.9,8.1-8.9,8.2c-8.4,0.3-16.7,0.1-25.1,0.1
		c-0.3,0.6-0.6,1.2-0.9,1.8c10.3,10,20.6,20,30.8,30c1.1,1.1,2.3,2.2,3.4,3.4c3.7,3.8,4.8,8,0.7,12.1c-4.1,4-8.2,3-12-0.8
		c-10.2-10.2-20.4-20.5-30.7-30.7C117.6,129,116.6,128.2,114,126z"/>
	<path class="st0" d="M114.4,274.8c10.9-11.1,20.5-20.8,30-30.6c1.9-2,3.9-3.9,6-5.7c3.7-3.2,7.5-3.4,11,0.2c3.7,3.9,3,8-0.5,11.6
		c-8.4,8.5-16.8,17-25.3,25.3c-2.9,2.8-6.2,5.2-9.3,7.8c0.4,0.8,0.9,1.6,1.3,2.4c6.7,0,13.5,0,20.2,0c2.5,0,5.6-0.6,7.4,0.7
		c2.6,1.9,5.5,4.9,6,7.8c0.7,4.3-2.6,7.4-7.1,7.4c-16.8,0.2-33.5,0.1-50.3,0c-4.5,0-5.7-2.9-5.7-6.9c0.1-15.8,0-31.7,0-47.5
		c0-5,2.1-8.7,7.5-8.9c5.8-0.2,8.2,3.6,8.4,8.8c0.3,6.2,0,12.4,0.1,18.6C114.1,268.2,114.2,270.4,114.4,274.8z"/>
	<g>
		<path class="st0" d="M353.7,353.6c-9.4,0-17.6,0-25.9,0c-14.9,0-29.8-0.2-44.7,0.1c-8.8,0.2-14.4,6.1-14.4,14.2
			c0,8,5.8,13.7,14.5,14.2c0.7,0,1.4,0.1,2.1,0.1c28.4,0,56.9,0.1,85.3,0c9.2,0,11.6-2.4,11.6-11.3c0.1-28.9,0.1-57.8,0.1-86.7
			c0-9.7-5.8-15.7-14.5-15.6c-8.6,0.1-14,6.2-14.1,16c-0.1,20,0,39.9-0.1,59.9C353.7,347.1,353.7,349.9,353.7,353.6z"/>
		<path class="st0" d="M353.7,46.4c0,19.3,0,37.6,0,55.9c0,3.4,0,6.9,0,10.3c0.1,12.6,4.7,18.6,14.2,18.7
			c9.4,0.1,14.4-6.3,14.5-18.5c0-4.1,0-8.3,0-12.4c0-22.9,0-45.9,0.1-68.8c0-11.8-1.9-13.8-13.4-13.8c-28.5,0-56.9-0.1-85.4,0.1
			c-9.2,0-14.6,5.3-14.9,13.6c-0.2,8.6,5.2,14.3,14.5,14.8c2.7,0.2,5.5,0.1,8.3,0.1C311.8,46.4,332.2,46.4,353.7,46.4z"/>
		<path class="st0" d="M286,126c0,9.5,0,17.2,0,25c0,5.5,1.2,10.2,8,10.5c5.3,0.2,7.9-3.3,8-10.4c0-14.9-0.1-29.8,0.1-44.7
			c0.1-5.8-1.8-8.4-7.9-8.3c-15.4,0.2-30.7,0.1-46.1,0.1c-5.3,0-9.2,1.9-9.4,7.6c-0.2,5.9,3.9,8.1,8.9,8.2
			c8.4,0.3,16.7,0.1,25.1,0.1c0.3,0.6,0.6,1.2,0.9,1.8c-10.3,10-20.6,20-30.8,30c-1.1,1.1-2.3,2.2-3.4,3.4c-3.7,3.8-4.8,8-0.7,12.1
			c4.1,4,8.2,3,12-0.8c10.2-10.2,20.4-20.5,30.7-30.7C282.4,129,283.4,128.2,286,126z"/>
		<path class="st0" d="M285.6,274.8c-10.9-11.1-20.5-20.8-30-30.6c-1.9-2-3.9-3.9-6-5.7c-3.7-3.2-7.5-3.4-11,0.2
			c-3.7,3.9-3,8,0.5,11.6c8.4,8.5,16.8,17,25.3,25.3c2.9,2.8,6.2,5.2,9.3,7.8c-0.4,0.8-0.9,1.6-1.3,2.4c-6.7,0-13.5,0-20.2,0
			c-2.5,0-5.6-0.6-7.4,0.7c-2.6,1.9-5.5,4.9-6,7.8c-0.7,4.3,2.6,7.4,7.1,7.4c16.8,0.2,33.5,0.1,50.3,0c4.5,0,5.7-2.9,5.7-6.9
			c-0.1-15.8,0-31.7,0-47.5c0-5-2.1-8.7-7.5-8.9c-5.8-0.2-8.2,3.6-8.4,8.8c-0.3,6.2,0,12.4-0.1,18.6
			C285.9,268.2,285.8,270.4,285.6,274.8z"/>
	</g>
</g>
</svg>
